<?xml version="1.0" encoding="UTF-8"?>
<svg width="48px" height="48px" viewBox="0 0 48 48" version="1.1" xmlns="http://www.w3.org/2000/svg">
    <!-- Generator: Sketch 52.6 (67491) - http://www.bohemiancoding.com/sketch -->
    <title>Combined Shape</title>
    <desc>Created with Sketch.</desc>
    <defs>
        <linearGradient x1="0%" y1="0%" x2="101.999998%" y2="100.999999%" id="linearGradient-1">
            <stop stop-color="#3023AE" offset="0%"/>
            <stop stop-color="#C86DD7" offset="100%"/>
        </linearGradient>
    </defs>
    <g id="Index" stroke="none" stroke-width="1" fill="none" fill-rule="evenodd">
        <g id="Mobile" transform="translate(-156.000000, -472.000000)" fill="url(#linearGradient-1)">
            <path d="M180,520 C166.745166,520 156,509.254834 156,496 C156,482.745166 166.745166,472 180,472 C193.254834,472 204,482.745166 204,496 C204,509.254834 193.254834,520 180,520 Z M180,517 C191.59798,517 201,507.59798 201,496 C201,484.40202 191.59798,475 180,475 C168.40202,475 159,484.40202 159,496 C159,507.59798 168.40202,517 180,517 Z M179.36,485.76 L180.64,485.76 L180.64,495.36 L190.24,495.36 L190.24,496.64 L180.64,496.64 L180.64,506.24 L179.36,506.24 L179.36,496.64 L169.76,496.64 L169.76,495.36 L179.36,495.36 L179.36,485.76 Z"
                  id="Combined-Shape"/>
        </g>
    </g>
</svg>
