<?xml version="1.0" encoding="UTF-8"?>
<svg xmlns="http://www.w3.org/2000/svg" viewBox="0 0 16 16" version="1.1" fill="#000000">
    <g id="surface1" fill="#000000">
        <path style=" "
              d="M 5.648438 1.648438 L 3.5 3.792969 L 2.726563 3.023438 L 2.023438 3.726563 L 3.5 5.207031 L 6.351563 2.351563 Z M 8 3 L 8 4 L 15 4 L 15 3 Z M 5.648438 5.648438 L 3.5 7.792969 L 2.726563 7.023438 L 2.023438 7.726563 L 3.5 9.207031 L 6.351563 6.351563 Z M 8 7 L 8 8 L 15 8 L 15 7 Z M 5.648438 9.648438 L 3.5 11.792969 L 2.726563 11.019531 L 2.023438 11.730469 L 3.5 13.207031 L 6.351563 10.355469 Z M 8 11 L 8 12 L 15 12 L 15 11 Z "
              fill="#000000"/>
    </g>
</svg>
