<?xml version="1.0" encoding="UTF-8"?>
<svg xmlns="http://www.w3.org/2000/svg" xmlns:xlink="http://www.w3.org/1999/xlink" viewBox="0 0 50 50" version="1.1" fill="#000000"><g id="surface1" fill="#000000"><path style=" " d="M 19.875 3.3125 C 15.183594 3.417969 12.214844 5.316406 10.9375 8.25 C 9.722656 11.042969 9.976563 14.5625 10.84375 18.21875 C 10.378906 18.765625 9.996094 19.535156 10.09375 20.6875 L 10.09375 20.75 C 10.261719 21.96875 10.628906 22.828125 11.09375 23.4375 C 11.320313 23.734375 11.65625 23.742188 11.9375 23.90625 C 12.105469 24.988281 12.425781 26.054688 12.875 26.9375 C 13.128906 27.4375 13.382813 27.878906 13.65625 28.25 C 13.78125 28.421875 13.960938 28.515625 14.09375 28.65625 C 14.105469 29.960938 14.15625 30.957031 14 32.28125 C 13.699219 33.039063 12.949219 33.644531 11.75 34.25 C 10.496094 34.882813 8.855469 35.464844 7.1875 36.1875 C 5.519531 36.910156 3.828125 37.777344 2.46875 39.15625 C 1.109375 40.535156 0.136719 42.445313 0 44.9375 L -0.0625 46 L 40.0625 46 L 40 44.9375 C 39.863281 42.445313 38.914063 40.539063 37.5625 39.15625 C 36.210938 37.773438 34.511719 36.910156 32.84375 36.1875 C 31.175781 35.464844 29.523438 34.886719 28.25 34.25 C 27.015625 33.632813 26.242188 33.003906 25.90625 32.21875 C 25.828125 30.894531 25.8125 29.878906 25.8125 28.625 C 25.929688 28.492188 26.105469 28.40625 26.21875 28.25 C 26.484375 27.878906 26.753906 27.433594 27 26.9375 C 27.433594 26.0625 27.765625 24.988281 27.96875 23.9375 C 28.289063 23.773438 28.65625 23.761719 28.90625 23.4375 C 29.386719 22.808594 29.667969 21.914063 29.78125 20.6875 C 29.871094 19.628906 29.566406 18.859375 29.09375 18.28125 C 29.613281 16.679688 30.230469 14.117188 30.03125 11.5 C 29.921875 10.0625 29.542969 8.628906 28.6875 7.4375 C 27.914063 6.359375 26.664063 5.621094 25.09375 5.28125 C 24.035156 3.867188 22.113281 3.3125 19.90625 3.3125 Z M 19.90625 5.3125 C 19.917969 5.3125 19.925781 5.3125 19.9375 5.3125 C 21.933594 5.320313 23.210938 5.882813 23.625 6.59375 L 23.875 7.03125 L 24.375 7.09375 C 25.75 7.285156 26.503906 7.816406 27.0625 8.59375 C 27.621094 9.371094 27.941406 10.457031 28.03125 11.65625 C 28.214844 14.058594 27.519531 16.875 27.0625 18.15625 L 26.75 19 L 27.53125 19.40625 C 27.523438 19.433594 27.851563 19.765625 27.8125 20.5 C 27.8125 20.515625 27.8125 20.515625 27.8125 20.53125 C 27.71875 21.472656 27.476563 22.003906 27.3125 22.21875 C 27.144531 22.4375 27.058594 22.40625 27.09375 22.40625 L 26.21875 22.40625 L 26.125 23.25 C 25.996094 24.152344 25.628906 25.199219 25.21875 26.03125 C 25.015625 26.445313 24.777344 26.839844 24.59375 27.09375 C 24.410156 27.347656 24.230469 27.484375 24.3125 27.4375 L 23.8125 27.71875 L 23.8125 28.3125 C 23.8125 29.8125 23.804688 30.933594 23.90625 32.5625 L 23.90625 32.71875 L 23.96875 32.84375 C 24.554688 34.375 25.882813 35.335938 27.34375 36.0625 C 28.804688 36.789063 30.460938 37.351563 32.03125 38.03125 C 33.601563 38.710938 35.066406 39.480469 36.125 40.5625 C 36.96875 41.425781 37.476563 42.574219 37.75 44 L 2.25 44 C 2.523438 42.574219 3.027344 41.425781 3.875 40.5625 C 4.9375 39.480469 6.429688 38.710938 8 38.03125 C 9.570313 37.351563 11.210938 36.792969 12.65625 36.0625 C 14.101563 35.332031 15.410156 34.359375 15.9375 32.8125 L 16 32.625 C 16.210938 30.929688 16.09375 29.769531 16.09375 28.3125 L 16.09375 27.71875 L 15.59375 27.4375 C 15.667969 27.480469 15.472656 27.320313 15.28125 27.0625 C 15.089844 26.804688 14.863281 26.445313 14.65625 26.03125 C 14.238281 25.207031 13.863281 24.179688 13.78125 23.3125 L 13.71875 22.40625 L 12.875 22.40625 C 12.839844 22.390625 12.746094 22.339844 12.65625 22.21875 C 12.480469 21.988281 12.230469 21.449219 12.09375 20.53125 C 12.09375 20.511719 12.09375 20.519531 12.09375 20.5 C 12.089844 20.484375 12.097656 20.484375 12.09375 20.46875 C 12.078125 19.710938 12.546875 19.289063 12.46875 19.34375 L 13.03125 18.9375 L 12.875 18.25 C 11.953125 14.605469 11.808594 11.304688 12.78125 9.0625 C 13.753906 6.828125 15.722656 5.414063 19.90625 5.3125 Z M 33 16 L 33 18 L 50 18 L 50 16 Z M 31 24 L 31 26 L 50 26 L 50 24 Z M 33 32 L 33 34 L 50 34 L 50 32 Z " fill="#000000"/></g></svg>
